<?xml version="1.0" encoding="UTF-8"?>
<svg xmlns="http://www.w3.org/2000/svg" xmlns:xlink="http://www.w3.org/1999/xlink" width="70px" height="70px" viewBox="0 0 70 70" version="1.1">
<g id="surface1">
<path style=" stroke:none;fill-rule:nonzero;fill:rgb(93.72549%,72.156863%,45.098039%);fill-opacity:1;" d="M 59.347656 16.507812 C 55.230469 7.441406 45.332031 0.847656 34.617188 0.847656 C 23.902344 0.847656 14.839844 6.613281 9.890625 16.507812 L 9.890625 17.328125 C 12.363281 19.808594 13.1875 20.628906 14.011719 20.628906 C 17.3125 12.382812 24.730469 6.613281 33.796875 6.613281 C 42.859375 6.613281 50.285156 12.382812 53.578125 20.628906 C 53.578125 20.628906 53.578125 20.628906 57.699219 17.328125 L 58.527344 17.328125 L 58.527344 16.507812 Z M 59.347656 16.507812 "/>
<path style=" stroke:none;fill-rule:nonzero;fill:rgb(34.509804%,38.823529%,43.921569%);fill-opacity:1;" d="M 60.171875 28.050781 C 60.171875 28.871094 61 29.695312 61.820312 29.695312 C 62.644531 29.695312 63.472656 28.871094 63.472656 28.050781 C 63.472656 12.382812 51.105469 0.0234375 35.445312 0.0234375 C 19.785156 0.0234375 7.417969 12.382812 7.417969 28.050781 C 7.417969 28.871094 8.242188 29.695312 9.070312 29.695312 C 9.890625 29.695312 10.714844 28.871094 10.714844 28.050781 C 10.714844 14.035156 22.257812 3.320312 35.445312 3.320312 C 49.457031 3.320312 60.171875 14.855469 60.171875 28.050781 Z M 61 38.765625 C 60.171875 38.765625 59.347656 39.585938 59.347656 40.410156 C 59.347656 54.425781 47.8125 65.140625 34.617188 65.140625 C 33.796875 65.140625 32.972656 65.96875 32.972656 66.789062 C 32.972656 67.613281 33.796875 68.4375 34.617188 68.4375 C 50.285156 68.4375 62.644531 56.070312 62.644531 40.410156 C 62.644531 39.585938 61.820312 38.765625 61 38.765625 Z M 61 38.765625 "/>
<path style=" stroke:none;fill-rule:nonzero;fill:rgb(93.72549%,72.156863%,45.098039%);fill-opacity:1;" d="M 0 32.167969 L 0 36.292969 C 0 37.9375 1.644531 39.585938 3.296875 39.585938 L 4.117188 39.585938 L 4.117188 28.871094 L 3.296875 28.871094 C 1.644531 28.871094 0 30.523438 0 32.167969 Z M 66.769531 28.871094 L 65.945312 28.871094 L 65.945312 39.585938 L 66.769531 39.585938 C 68.417969 39.585938 70.0625 37.9375 70.0625 36.292969 L 70.0625 32.167969 C 70.0625 30.523438 68.417969 28.871094 66.769531 28.871094 Z M 66.769531 28.871094 "/>
<path style=" stroke:none;fill-rule:nonzero;fill:rgb(87.843137%,59.607843%,41.568627%);fill-opacity:1;" d="M 9.890625 24.75 L 8.242188 24.75 C 6.597656 24.75 4.945312 26.398438 4.945312 28.050781 L 4.945312 40.410156 C 4.945312 42.058594 6.597656 43.710938 8.242188 43.710938 L 9.890625 43.710938 C 11.542969 43.710938 13.1875 42.058594 13.1875 40.410156 L 13.1875 28.050781 C 13.1875 26.398438 11.542969 24.75 9.890625 24.75 Z M 62.644531 24.75 L 61 24.75 C 59.347656 24.75 57.699219 26.398438 57.699219 28.050781 L 57.699219 40.410156 C 57.699219 42.058594 59.347656 43.710938 61 43.710938 L 62.644531 43.710938 C 64.296875 43.710938 65.945312 42.058594 65.945312 40.410156 L 65.945312 28.050781 C 65.945312 26.398438 64.296875 24.75 62.644531 24.75 Z M 38.742188 63.496094 L 31.324219 63.496094 C 29.671875 63.496094 28.027344 65.140625 28.027344 66.789062 C 28.027344 68.4375 29.671875 70.085938 31.324219 70.085938 L 38.742188 70.085938 C 40.390625 70.085938 42.039062 68.4375 42.039062 66.789062 C 42.039062 65.140625 40.390625 63.496094 38.742188 63.496094 Z M 38.742188 63.496094 "/>
<path style=" stroke:none;fill-rule:nonzero;fill:rgb(47.058824%,55.294118%,59.607843%);fill-opacity:1;" d="M 50.285156 36.292969 C 50.285156 35.46875 50.285156 34.640625 50.285156 33.816406 C 50.285156 32.996094 50.285156 32.167969 50.285156 31.34375 L 45.332031 30.523438 C 45.332031 29.695312 45.332031 29.695312 44.511719 28.871094 L 47.8125 24.75 C 46.984375 23.101562 45.332031 22.28125 44.511719 21.453125 L 40.390625 24.75 C 39.570312 24.75 39.570312 23.925781 38.742188 23.925781 L 37.917969 18.980469 C 37.089844 18.980469 36.269531 18.980469 35.445312 18.980469 C 34.617188 18.980469 33.796875 18.980469 32.972656 18.980469 L 32.144531 23.925781 C 31.324219 23.925781 31.324219 23.925781 30.5 24.75 L 26.375 21.453125 C 24.730469 22.28125 23.902344 23.925781 23.082031 24.75 L 26.375 28.871094 C 26.375 29.695312 25.554688 29.695312 25.554688 30.523438 L 20.605469 31.34375 C 20.605469 32.167969 20.605469 32.996094 20.605469 33.816406 C 20.605469 34.640625 20.605469 35.46875 20.605469 36.292969 L 25.554688 37.113281 C 25.554688 37.9375 25.554688 37.9375 26.375 38.765625 L 23.082031 42.882812 C 23.902344 44.535156 25.554688 45.355469 26.375 46.183594 L 30.5 42.882812 C 31.324219 42.882812 31.324219 42.882812 32.144531 43.710938 L 32.972656 48.65625 C 33.796875 48.65625 34.617188 48.65625 35.445312 48.65625 C 36.269531 48.65625 37.089844 48.65625 37.917969 48.65625 L 38.742188 43.710938 C 39.570312 43.710938 39.570312 43.710938 40.390625 42.882812 L 44.511719 46.183594 C 46.160156 45.355469 46.984375 43.710938 47.8125 42.882812 L 44.511719 38.765625 C 44.511719 37.9375 44.511719 37.9375 45.332031 37.113281 Z M 50.285156 36.292969 "/>
<path style=" stroke:none;fill-rule:nonzero;fill:rgb(99.607843%,99.607843%,99.607843%);fill-opacity:1;" d="M 40.390625 33.816406 C 40.390625 37.113281 37.917969 39.585938 34.617188 39.585938 C 31.324219 39.585938 28.847656 37.113281 28.847656 33.816406 C 28.847656 30.523438 31.324219 28.050781 34.617188 28.050781 C 37.917969 28.050781 40.390625 30.523438 40.390625 33.816406 Z M 40.390625 33.816406 "/>
</g>
</svg>
