<svg xmlns="http://www.w3.org/2000/svg" viewBox="0 0 2010 2010" id="redelivery"><path fill="#df697c" d="M1216.99,1363.12h-492.6c-25.56,0-48.1-16.73-55.51-41.19-6.6-21.79-20.33-41.39-38.66-55.21-18.89-14.23-41.43-21.76-65.19-21.76s-46.3,7.52-65.18,21.75c-18.33,13.81-32.06,33.42-38.66,55.21-7.41,24.46-29.95,41.19-55.51,41.19h-80.77c-86.51,0-156.89-70.38-156.89-156.89V588.95c0-86.51,70.38-156.89,156.89-156.89h823.32c86.51,0,156.89,70.38,156.89,156.89v659.52c0,13.09-4.43,25.8-12.57,36.06-.25,.31-.5,.62-.75,.94l-.14,.18s-.05,.06-.08,.1c-8.67,10.82-15.08,22.99-19.07,36.17-7.4,24.47-29.95,41.2-55.51,41.2Zm30.13-114.65h0Z"></path><path fill="#df697c" d="M1696.4,1363.12h-160.71c-25.56,0-48.1-16.73-55.51-41.19-6.6-21.79-20.33-41.39-38.66-55.21-18.89-14.23-41.43-21.75-65.18-21.75-32.72,0-63.36,14.55-84.1,39.93-.15,.19-.3,.38-.46,.56l-.14,.18c-15.36,19.29-41.22,26.75-64.5,18.62-23.28-8.13-38.86-30.11-38.86-54.77v-475.56c0-32.03,25.97-58,58-58h237.81c36.93,0,72.16,13.86,99.19,39.02l212.3,197.63c29.48,27.44,46.39,66.28,46.39,106.56v158.4c0,80.27-65.31,145.58-145.58,145.58Zm-122.39-116h122.39c16.31,0,29.58-13.27,29.58-29.58v-158.4c0-8.18-3.44-16.08-9.43-21.65l-212.29-197.62c-5.49-5.11-12.65-7.93-20.16-7.93h-179.81v308.83c22.9-7.74,47.18-11.79,72.05-11.79,49.14,0,95.82,15.6,134.99,45.11,25.88,19.5,47.33,44.64,62.68,73.04Z"></path><path fill="#778791" d="M565.03 1577.94c-59.96 0-116.34-23.35-158.73-65.75-42.4-42.4-65.75-98.77-65.75-158.73 0-22.18 3.24-44.11 9.63-65.17 13.67-45.14 42.04-85.7 79.86-114.21 39.17-29.51 85.84-45.11 134.99-45.11s95.83 15.6 134.99 45.11c37.83 28.5 66.2 69.07 79.88 114.23 6.38 21.04 9.62 42.97 9.62 65.15 0 59.96-23.35 116.33-65.75 158.73-42.4 42.4-98.77 65.75-158.74 65.75zM1376.34 1577.94c-59.96 0-116.34-23.35-158.74-65.75-42.4-42.4-65.75-98.77-65.75-158.73 0-22.19 3.24-44.11 9.63-65.17 8.28-27.36 21.58-52.63 39.54-75.05l.7-.87c.15-.18.25-.32.4-.5 42.87-52.68 106.37-82.89 174.22-82.89 49.14 0 95.82 15.6 134.99 45.11 37.83 28.5 66.2 69.07 79.87 114.23 6.38 21.04 9.62 42.97 9.62 65.15 0 59.96-23.35 116.33-65.75 158.73-42.4 42.4-98.77 65.75-158.73 65.75z"></path><g><path fill="#e98d91" d="M582.05,807.72h192.84c-5.82,20.6,.04,43.65,17.03,58.93,11.08,9.96,24.94,14.87,38.76,14.87,15.88,0,31.7-6.49,43.15-19.22l66.35-73.8c19.83-22.05,19.83-55.51,0-77.56l-66.35-73.8c-21.42-23.82-58.09-25.77-81.91-4.35-17,15.28-22.85,38.32-17.03,58.93h-192.84c-32.03,0-58,25.97-58,58s25.97,58,58,58Z"></path><path fill="#e98d91" d="M897.05,906.03h-192.84c5.81-20.6-.04-43.65-17.03-58.93-23.82-21.42-60.49-19.47-81.91,4.35l-66.35,73.8c-19.83,22.05-19.83,55.51,0,77.56l66.35,73.8c11.45,12.74,27.27,19.22,43.15,19.22,13.81,0,27.68-4.91,38.76-14.87,17-15.28,22.85-38.33,17.03-58.93h192.84c32.03,0,58-25.97,58-58s-25.97-58-58-58Z"></path></g></svg>